# xmcd
#
# Track frame offsets: 
#        150
#        14170
#        33876
#        51674
#        63305
#        75976
#        90116
#        108411
#        126598
#        139135
#        155366
#        171551
#        191007
#
# Disc length: 2772 seconds
#
# Revision: 0
# Processed by: cddbd v1.5.2PL0 Copyright (c) Steve Scherf et al.
# Submitted via: ExactAudioCopy v1.0b1
#
DISCID=b10ad20d
DTITLE=Micke and Lefty  - Up The Wall
DYEAR=2011
DGENRE=Blues
TTITLE0=You Better Me
TTITLE1=I'm a guitar Man
TTITLE2=Up the Wall
TTITLE3=Clean Up
TTITLE4=Come Here Baby
TTITLE5=Ultimate all Around Man
TTITLE6=Good Friend
TTITLE7=Busy
TTITLE8=Attention
TTITLE9=You Now
TTITLE10=Good Ol´ Train
TTITLE11=Polk Salad Annie
TTITLE12=Don't take it so Hard
EXTD=
EXTT0=
EXTT1=
EXTT2=
EXTT3=
EXTT4=
EXTT5=
EXTT6=
EXTT7=
EXTT8=
EXTT9=
EXTT10=
EXTT11=
EXTT12=
PLAYORDER=
